<svg xmlns="http://www.w3.org/2000/svg" viewBox="0 0 100 100" width="20" height="20"><path d="M25.922 11.96a1 1 0 00-1 1v2h-2.233c-4.834 0-8.767 3.935-8.767 8.769v61.494a3.742 3.742 0 003.738 3.738h65.774a3.495 3.495 0 003.49-3.486V23.729c0-4.834-3.936-8.768-8.77-8.768h-2.232v-2a1 1 0 10-2 0v2h-5v-2a1 1 0 10-2 0v2h-5v-2a1 1 0 10-2 0v2h-5v-2a1 1 0 10-2 0v2h-5v-2a1 1 0 10-2 0v2h-5v-2a1 1 0 10-2 0v2h-5v-2a1 1 0 10-2 0v2h-5v-2a1 1 0 00-1-1zm-3.233 5h2.233v2a1 1 0 102 0v-2h5v2a1 1 0 102 0v-2h5v2a1 1 0 102 0v-2h5v2a1 1 0 102 0v-2h5v2a1 1 0 102 0v-2h5v2a1 1 0 102 0v-2h5v2a1 1 0 102 0v-2h5v2a1 1 0 102 0v-2h2.23a6.775 6.775 0 016.768 6.769v7.232h-3.498a.5.5 0 000 1h3.498v53.514c0 .82-.666 1.486-1.486 1.486H17.66a1.74 1.74 0 01-1.738-1.738V31.96h59.5a.5.5 0 100-1h-59.5v-7.232a6.776 6.776 0 016.767-6.768zm1.733 4a2.503 2.503 0 00-2.5 2.5c0 1.379 1.12 2.5 2.5 2.5 1.379 0 2.5-1.121 2.5-2.5 0-1.377-1.121-2.5-2.5-2.5zm52 0a2.503 2.503 0 00-2.5 2.5c0 1.379 1.12 2.5 2.5 2.5 1.379 0 2.5-1.121 2.5-2.5 0-1.377-1.121-2.5-2.5-2.5zm-52 1c.827 0 1.5.674 1.5 1.5 0 .828-.673 1.5-1.5 1.5s-1.5-.672-1.5-1.5c0-.826.673-1.5 1.5-1.5zm52 0c.827 0 1.5.674 1.5 1.5 0 .828-.673 1.5-1.5 1.5s-1.5-.672-1.5-1.5c0-.826.673-1.5 1.5-1.5zm1 9a.5.5 0 000 1h2a.5.5 0 100-1h-2zm-41 10a.5.5 0 000 1h1.5v5h-5v-2.5a.5.5 0 00-1 0v3a.5.5 0 00.5.5h6a.5.5 0 00.5-.5v-6a.5.5 0 00-.5-.5h-2zm6 0a.5.5 0 00-.5.5v6a.5.5 0 00.5.5h6a.5.5 0 00.5-.5v-6a.5.5 0 00-.5-.5h-6zm10 0a.5.5 0 00-.5.5v6a.5.5 0 00.5.5h6a.5.5 0 00.5-.5v-6a.5.5 0 00-.5-.5h-6zm10 0a.5.5 0 00-.5.5v6a.5.5 0 00.5.5h6a.5.5 0 00.5-.5v-6a.5.5 0 00-.5-.5h-6zm10 0a.5.5 0 00-.5.5v6a.5.5 0 00.5.5h6a.5.5 0 00.5-.5v-6a.5.5 0 00-.5-.5h-6zm-29.5 1h5v5h-5v-5zm10 0h5v5h-5v-5zm10 0h5v5h-5v-5zm10 0h5v5h-5v-5zm-50.5 9a.5.5 0 00-.5.5v6a.5.5 0 00.5.5h6a.5.5 0 00.5-.5v-6a.5.5 0 00-.5-.5h-6zm10 0a.5.5 0 00-.5.5v6a.5.5 0 00.5.5h6a.5.5 0 00.5-.5v-6a.5.5 0 00-.5-.5h-6zm10 0a.5.5 0 00-.5.5v6a.5.5 0 00.5.5h6a.5.5 0 00.5-.5v-6a.5.5 0 00-.5-.5h-6zm10 0a.5.5 0 00-.5.5v6a.5.5 0 00.5.5h6a.5.5 0 00.5-.5v-6a.5.5 0 00-.5-.5h-6zm10 0a.5.5 0 00-.5.5v6a.5.5 0 00.5.5h6a.5.5 0 00.5-.5v-6a.5.5 0 00-.5-.5h-6zm10 0a.5.5 0 00-.5.5v6a.5.5 0 00.5.5h6a.5.5 0 00.5-.5v-6a.5.5 0 00-.5-.5h-6zm-49.5 1h5v5h-5v-5zm10 0h5v5h-5v-5zm10 0h5v5h-5v-5zm10 0h5v5h-5v-5zm10 0h5v5h-5v-5zm10 0h5v5h-5v-5zm-50.5 9a.5.5 0 00-.5.5v6a.5.5 0 00.5.5h6a.5.5 0 00.5-.5v-6a.5.5 0 00-.5-.5h-6zm10 0a.5.5 0 00-.5.5v6a.5.5 0 00.5.5h6a.5.5 0 00.5-.5v-6a.5.5 0 00-.5-.5h-6zm10 0a.5.5 0 00-.5.5v6a.5.5 0 00.5.5h6a.5.5 0 00.5-.5v-6a.5.5 0 00-.5-.5h-6zm10 0a.5.5 0 00-.5.5v6a.5.5 0 00.5.5h6a.5.5 0 00.5-.5v-6a.5.5 0 00-.5-.5h-6zm10 0a.5.5 0 00-.5.5v6a.5.5 0 00.5.5h6a.5.5 0 00.5-.5v-6a.5.5 0 00-.5-.5h-6zm10 0a.5.5 0 00-.5.5v6a.5.5 0 00.5.5h6a.5.5 0 00.5-.5v-6a.5.5 0 00-.5-.5h-6zm-49.5 1h5v5h-5v-5zm10 0h5v5h-5v-5zm10 0h5v5h-5v-5zm10 0h5v5h-5v-5zm10 0h5v5h-5v-5zm10 0h5v5h-5v-5zm-50.5 9a.5.5 0 00-.5.5v6a.5.5 0 00.5.5h6a.5.5 0 00.5-.5v-6a.5.5 0 00-.5-.5h-6zm10 0a.5.5 0 00-.5.5v6a.5.5 0 00.5.5h6a.5.5 0 00.5-.5v-6a.5.5 0 00-.5-.5h-6zm10 0a.5.5 0 00-.5.5v6a.5.5 0 00.5.5h6a.5.5 0 00.5-.5v-6a.5.5 0 00-.5-.5h-6zm10 0a.5.5 0 00-.5.5v6a.5.5 0 00.5.5h5a.5.5 0 100-1h-4.5v-5h5v3.5a.5.5 0 001 0v-4a.5.5 0 00-.5-.5h-6zm-29.5 1h5v5h-5v-5zm10 0h5v5h-5v-5zm10 0h5v5h-5v-5z"/></svg>